<mxfile host="app.diagrams.net" agent="Mozilla/5.0 (Windows NT 10.0; Win64; x64) AppleWebKit/537.36 (KHTML, like Gecko) Chrome/134.0.0.0 Safari/537.36" version="26.2.9">
  <diagram id="C5RBs43oDa-KdzZeNtuy" name="Page-1">
    <mxGraphModel dx="1461" dy="1846" grid="1" gridSize="10" guides="1" tooltips="1" connect="1" arrows="1" fold="1" page="1" pageScale="1" pageWidth="827" pageHeight="1169" math="0" shadow="0">
      <root>
        <mxCell id="WIyWlLk6GJQsqaUBKTNV-0" />
        <mxCell id="WIyWlLk6GJQsqaUBKTNV-1" parent="WIyWlLk6GJQsqaUBKTNV-0" />
        <mxCell id="wtLWYiBCeU5-RQb-BHR4-4" value="Application" style="swimlane;fontStyle=1;align=center;verticalAlign=top;childLayout=stackLayout;horizontal=1;startSize=26;horizontalStack=0;resizeParent=1;resizeParentMax=0;resizeLast=0;collapsible=1;marginBottom=0;whiteSpace=wrap;html=1;" parent="WIyWlLk6GJQsqaUBKTNV-1" vertex="1">
          <mxGeometry x="270" y="-410" width="360" height="360" as="geometry" />
        </mxCell>
        <mxCell id="wtLWYiBCeU5-RQb-BHR4-5" value="- mInstance : static Application*&lt;div&gt;- mAlive : bool&lt;/div&gt;&lt;div&gt;- mWindowInst : HINSTANCE&lt;/div&gt;&lt;div&gt;- mWindowClassName : WCHAR&lt;/div&gt;&lt;div&gt;- mHwnd : HWND&lt;/div&gt;&lt;div&gt;- mWidth : int&lt;/div&gt;&lt;div&gt;- mHeight : int&lt;/div&gt;&lt;div&gt;- mhDC : HDC&lt;/div&gt;&lt;div&gt;- mCanvasDC : HDC&lt;/div&gt;&lt;div&gt;- mhBmp : HBITMAP&lt;/div&gt;&lt;div&gt;- mCanvasBuffer : void*&lt;/div&gt;" style="text;strokeColor=none;fillColor=none;align=left;verticalAlign=top;spacingLeft=4;spacingRight=4;overflow=hidden;rotatable=0;points=[[0,0.5],[1,0.5]];portConstraint=eastwest;whiteSpace=wrap;html=1;" parent="wtLWYiBCeU5-RQb-BHR4-4" vertex="1">
          <mxGeometry y="26" width="360" height="174" as="geometry" />
        </mxCell>
        <mxCell id="wtLWYiBCeU5-RQb-BHR4-6" value="" style="line;strokeWidth=1;fillColor=none;align=left;verticalAlign=middle;spacingTop=-1;spacingLeft=3;spacingRight=3;rotatable=0;labelPosition=right;points=[];portConstraint=eastwest;strokeColor=inherit;" parent="wtLWYiBCeU5-RQb-BHR4-4" vertex="1">
          <mxGeometry y="200" width="360" height="8" as="geometry" />
        </mxCell>
        <mxCell id="wtLWYiBCeU5-RQb-BHR4-7" value="+ getInstance() : static Application*&lt;div&gt;+ initApplication(hInstance, width, height) : bool&lt;/div&gt;&lt;div&gt;+ handleMessage(hWnd, message, wParam, lParam);&lt;/div&gt;&lt;div&gt;+ peekMessage() : bool&lt;/div&gt;&lt;div&gt;- createWindow(hInstance) : BOOL&lt;/div&gt;&lt;div&gt;- registerWindowClass(hInstance) : ATOM&lt;/div&gt;&lt;div&gt;+ show()&lt;/div&gt;&lt;div&gt;+ getWidth() : uint32_t&lt;/div&gt;&lt;div&gt;+ getHeight() : uint32_t&lt;/div&gt;&lt;div&gt;+ getCanvas() : void*&lt;/div&gt;" style="text;strokeColor=none;fillColor=none;align=left;verticalAlign=top;spacingLeft=4;spacingRight=4;overflow=hidden;rotatable=0;points=[[0,0.5],[1,0.5]];portConstraint=eastwest;whiteSpace=wrap;html=1;" parent="wtLWYiBCeU5-RQb-BHR4-4" vertex="1">
          <mxGeometry y="208" width="360" height="152" as="geometry" />
        </mxCell>
        <mxCell id="5mf7mb4UoupejFtRi5i7-4" value="GPU" style="swimlane;fontStyle=1;align=center;verticalAlign=top;childLayout=stackLayout;horizontal=1;startSize=26;horizontalStack=0;resizeParent=1;resizeParentMax=0;resizeLast=0;collapsible=1;marginBottom=0;whiteSpace=wrap;html=1;" parent="WIyWlLk6GJQsqaUBKTNV-1" vertex="1">
          <mxGeometry x="60" y="20" width="330" height="460" as="geometry" />
        </mxCell>
        <mxCell id="5mf7mb4UoupejFtRi5i7-5" value="- mInstance : static GPU*&lt;div&gt;- mFrameBuffer : FrameBuffer*&lt;/div&gt;&lt;div&gt;- mCurrentVBO : uint32_t&lt;/div&gt;&lt;div&gt;- mCurrentEBO : uint32_t&lt;/div&gt;&lt;div&gt;- mBufferCounter : uint32_t&lt;/div&gt;&lt;div&gt;- mBufferMap : std::map&lt;/div&gt;&lt;div&gt;- mCurrentVAO : uint32_t&lt;/div&gt;&lt;div&gt;- mVaoCounter : uint32_t&lt;/div&gt;&lt;div&gt;- mVaoMap : std::map&lt;/div&gt;&lt;div&gt;- mShader : Shader*&lt;/div&gt;&lt;div&gt;- mScreenMatrix : math::mat4f&lt;/div&gt;" style="text;strokeColor=none;fillColor=none;align=left;verticalAlign=top;spacingLeft=4;spacingRight=4;overflow=hidden;rotatable=0;points=[[0,0.5],[1,0.5]];portConstraint=eastwest;whiteSpace=wrap;html=1;" parent="5mf7mb4UoupejFtRi5i7-4" vertex="1">
          <mxGeometry y="26" width="330" height="164" as="geometry" />
        </mxCell>
        <mxCell id="5mf7mb4UoupejFtRi5i7-6" value="" style="line;strokeWidth=1;fillColor=none;align=left;verticalAlign=middle;spacingTop=-1;spacingLeft=3;spacingRight=3;rotatable=0;labelPosition=right;points=[];portConstraint=eastwest;strokeColor=inherit;" parent="5mf7mb4UoupejFtRi5i7-4" vertex="1">
          <mxGeometry y="190" width="330" height="30" as="geometry" />
        </mxCell>
        <mxCell id="5mf7mb4UoupejFtRi5i7-7" value="+ getInstance() : static GPU*&lt;div&gt;+ initSurface(width, height, buffer)&lt;/div&gt;&lt;div&gt;+ clear()&lt;/div&gt;&lt;div&gt;+ genBuffer() : uint32_t&lt;/div&gt;&lt;div&gt;+ deleteBuffer(bufferId)&lt;/div&gt;&lt;div&gt;+ bindBuffer(bufferType, bufferId)&lt;/div&gt;&lt;div&gt;+ bufferData(bufferType, dataSize, data)&lt;/div&gt;&lt;div&gt;+ getVertextArray() : uint32_t&lt;/div&gt;&lt;div&gt;+ deleteVertexArray(vaoId)&lt;/div&gt;&lt;div&gt;+ bindVertexArray(vaoId)&lt;/div&gt;&lt;div&gt;+ vertexAttributePointer(binding, itemSize, stride, offset)&lt;/div&gt;&lt;div&gt;+ useProgram(shader)&lt;/div&gt;&lt;div&gt;+ drawElement(drawMode, first, count)&lt;/div&gt;&lt;div&gt;- vertexShaderStage(vsOutputs, vao, ebo, first, count)&lt;/div&gt;&lt;div&gt;- perspectiveDivision(vsOutput)&lt;/div&gt;&lt;div&gt;- screenMapping(vsOutput)&lt;/div&gt;" style="text;strokeColor=none;fillColor=none;align=left;verticalAlign=top;spacingLeft=4;spacingRight=4;overflow=hidden;rotatable=0;points=[[0,0.5],[1,0.5]];portConstraint=eastwest;whiteSpace=wrap;html=1;" parent="5mf7mb4UoupejFtRi5i7-4" vertex="1">
          <mxGeometry y="220" width="330" height="240" as="geometry" />
        </mxCell>
        <mxCell id="5mf7mb4UoupejFtRi5i7-8" value="FrameBuffer" style="swimlane;fontStyle=1;align=center;verticalAlign=top;childLayout=stackLayout;horizontal=1;startSize=26;horizontalStack=0;resizeParent=1;resizeParentMax=0;resizeLast=0;collapsible=1;marginBottom=0;whiteSpace=wrap;html=1;" parent="WIyWlLk6GJQsqaUBKTNV-1" vertex="1">
          <mxGeometry x="60" y="610" width="200" height="150" as="geometry" />
        </mxCell>
        <mxCell id="5mf7mb4UoupejFtRi5i7-9" value="+ mWidth : uint32_t&lt;div&gt;+ mHeight : uint32_t&lt;/div&gt;&lt;div&gt;+ mColorBuffer : RGBA*&lt;/div&gt;&lt;div&gt;+ mExternBuffer : bool&lt;/div&gt;" style="text;strokeColor=none;fillColor=none;align=left;verticalAlign=top;spacingLeft=4;spacingRight=4;overflow=hidden;rotatable=0;points=[[0,0.5],[1,0.5]];portConstraint=eastwest;whiteSpace=wrap;html=1;" parent="5mf7mb4UoupejFtRi5i7-8" vertex="1">
          <mxGeometry y="26" width="200" height="64" as="geometry" />
        </mxCell>
        <mxCell id="5mf7mb4UoupejFtRi5i7-10" value="" style="line;strokeWidth=1;fillColor=none;align=left;verticalAlign=middle;spacingTop=-1;spacingLeft=3;spacingRight=3;rotatable=0;labelPosition=right;points=[];portConstraint=eastwest;strokeColor=inherit;" parent="5mf7mb4UoupejFtRi5i7-8" vertex="1">
          <mxGeometry y="90" width="200" height="8" as="geometry" />
        </mxCell>
        <mxCell id="5mf7mb4UoupejFtRi5i7-11" value="+ FrameBuffer(width, height, buffer)&lt;div&gt;&lt;br&gt;&lt;/div&gt;&lt;div&gt;// 不允许拷贝复制&lt;/div&gt;" style="text;strokeColor=none;fillColor=none;align=left;verticalAlign=top;spacingLeft=4;spacingRight=4;overflow=hidden;rotatable=0;points=[[0,0.5],[1,0.5]];portConstraint=eastwest;whiteSpace=wrap;html=1;" parent="5mf7mb4UoupejFtRi5i7-8" vertex="1">
          <mxGeometry y="98" width="200" height="52" as="geometry" />
        </mxCell>
        <mxCell id="P8PSTKXqFBAs1czMJzL6-0" value="Raster" style="swimlane;fontStyle=1;align=center;verticalAlign=top;childLayout=stackLayout;horizontal=1;startSize=26;horizontalStack=0;resizeParent=1;resizeParentMax=0;resizeLast=0;collapsible=1;marginBottom=0;whiteSpace=wrap;html=1;" parent="WIyWlLk6GJQsqaUBKTNV-1" vertex="1">
          <mxGeometry x="510" y="120" width="400" height="160" as="geometry" />
        </mxCell>
        <mxCell id="P8PSTKXqFBAs1czMJzL6-2" value="" style="line;strokeWidth=1;fillColor=none;align=left;verticalAlign=middle;spacingTop=-1;spacingLeft=3;spacingRight=3;rotatable=0;labelPosition=right;points=[];portConstraint=eastwest;strokeColor=inherit;" parent="P8PSTKXqFBAs1czMJzL6-0" vertex="1">
          <mxGeometry y="26" width="400" height="8" as="geometry" />
        </mxCell>
        <mxCell id="P8PSTKXqFBAs1czMJzL6-3" value="&lt;div&gt;+ Raster()&lt;/div&gt;&lt;div&gt;+ ~Raster()&lt;/div&gt;&lt;div&gt;+ rasterize(results, drawMode, inputs) : static&lt;/div&gt;- rasterizeLine(results, v0, v1) : static&lt;div&gt;- interpolantLine(v0, v1, target) : static&lt;/div&gt;&lt;div&gt;- rasterizeTriangle(results : vector, v0, v1, v2&lt;span style=&quot;background-color: transparent; color: light-dark(rgb(0, 0, 0), rgb(255, 255, 255));&quot;&gt;) : static&lt;/span&gt;&lt;/div&gt;&lt;div&gt;&lt;br&gt;&lt;/div&gt;" style="text;strokeColor=none;fillColor=none;align=left;verticalAlign=top;spacingLeft=4;spacingRight=4;overflow=hidden;rotatable=0;points=[[0,0.5],[1,0.5]];portConstraint=eastwest;whiteSpace=wrap;html=1;" parent="P8PSTKXqFBAs1czMJzL6-0" vertex="1">
          <mxGeometry y="34" width="400" height="126" as="geometry" />
        </mxCell>
        <mxCell id="yCGhFCQeDglLVx2CmpNE-3" value="" style="endArrow=classic;html=1;rounded=0;entryX=0.5;entryY=0;entryDx=0;entryDy=0;exitX=0.489;exitY=1.004;exitDx=0;exitDy=0;exitPerimeter=0;" parent="WIyWlLk6GJQsqaUBKTNV-1" source="wtLWYiBCeU5-RQb-BHR4-7" target="5mf7mb4UoupejFtRi5i7-4" edge="1">
          <mxGeometry width="50" height="50" relative="1" as="geometry">
            <mxPoint x="390" y="-10" as="sourcePoint" />
            <mxPoint x="440" y="-60" as="targetPoint" />
          </mxGeometry>
        </mxCell>
        <mxCell id="yCGhFCQeDglLVx2CmpNE-4" value="" style="endArrow=classic;html=1;rounded=0;exitX=0.437;exitY=1.026;exitDx=0;exitDy=0;exitPerimeter=0;" parent="WIyWlLk6GJQsqaUBKTNV-1" source="5mf7mb4UoupejFtRi5i7-7" target="5mf7mb4UoupejFtRi5i7-8" edge="1">
          <mxGeometry width="50" height="50" relative="1" as="geometry">
            <mxPoint x="130" y="380" as="sourcePoint" />
            <mxPoint x="180" y="330" as="targetPoint" />
          </mxGeometry>
        </mxCell>
        <mxCell id="yCGhFCQeDglLVx2CmpNE-5" value="" style="endArrow=classic;html=1;rounded=0;entryX=-0.006;entryY=0.113;entryDx=0;entryDy=0;entryPerimeter=0;exitX=1.014;exitY=-0.014;exitDx=0;exitDy=0;exitPerimeter=0;" parent="WIyWlLk6GJQsqaUBKTNV-1" source="5mf7mb4UoupejFtRi5i7-7" target="P8PSTKXqFBAs1czMJzL6-3" edge="1">
          <mxGeometry width="50" height="50" relative="1" as="geometry">
            <mxPoint x="260" y="210" as="sourcePoint" />
            <mxPoint x="310" y="160" as="targetPoint" />
          </mxGeometry>
        </mxCell>
        <mxCell id="Tz2W6l7GuTd2-jDzGLeW-0" value="Image" style="swimlane;fontStyle=1;align=center;verticalAlign=top;childLayout=stackLayout;horizontal=1;startSize=26;horizontalStack=0;resizeParent=1;resizeParentMax=0;resizeLast=0;collapsible=1;marginBottom=0;whiteSpace=wrap;html=1;" parent="WIyWlLk6GJQsqaUBKTNV-1" vertex="1">
          <mxGeometry x="600" y="320" width="220" height="170" as="geometry" />
        </mxCell>
        <mxCell id="Tz2W6l7GuTd2-jDzGLeW-1" value="+ mWidth : uint32_t&lt;div&gt;+ mHeight : uint32_t&lt;/div&gt;&lt;div&gt;+ mData : RGBA*&lt;/div&gt;" style="text;strokeColor=none;fillColor=none;align=left;verticalAlign=top;spacingLeft=4;spacingRight=4;overflow=hidden;rotatable=0;points=[[0,0.5],[1,0.5]];portConstraint=eastwest;whiteSpace=wrap;html=1;" parent="Tz2W6l7GuTd2-jDzGLeW-0" vertex="1">
          <mxGeometry y="26" width="220" height="54" as="geometry" />
        </mxCell>
        <mxCell id="Tz2W6l7GuTd2-jDzGLeW-4" value="" style="line;strokeWidth=1;fillColor=none;align=left;verticalAlign=middle;spacingTop=-1;spacingLeft=3;spacingRight=3;rotatable=0;labelPosition=right;points=[];portConstraint=eastwest;strokeColor=inherit;" parent="Tz2W6l7GuTd2-jDzGLeW-0" vertex="1">
          <mxGeometry y="80" width="220" height="20" as="geometry" />
        </mxCell>
        <mxCell id="Tz2W6l7GuTd2-jDzGLeW-3" value="+ Image(width, height, data)&lt;div&gt;+ ~Image()&lt;/div&gt;&lt;div&gt;+ createImage(path) : static Image*&lt;/div&gt;&lt;div&gt;+ destroy(image) :static&lt;/div&gt;" style="text;strokeColor=none;fillColor=none;align=left;verticalAlign=top;spacingLeft=4;spacingRight=4;overflow=hidden;rotatable=0;points=[[0,0.5],[1,0.5]];portConstraint=eastwest;whiteSpace=wrap;html=1;" parent="Tz2W6l7GuTd2-jDzGLeW-0" vertex="1">
          <mxGeometry y="100" width="220" height="70" as="geometry" />
        </mxCell>
        <mxCell id="7Mvn_Pxmh1yl7U_SXqtg-0" value="BindingDescription" style="swimlane;fontStyle=1;align=center;verticalAlign=top;childLayout=stackLayout;horizontal=1;startSize=26;horizontalStack=0;resizeParent=1;resizeParentMax=0;resizeLast=0;collapsible=1;marginBottom=0;whiteSpace=wrap;html=1;" parent="WIyWlLk6GJQsqaUBKTNV-1" vertex="1">
          <mxGeometry x="770" y="850" width="160" height="100" as="geometry" />
        </mxCell>
        <mxCell id="7Mvn_Pxmh1yl7U_SXqtg-1" value="+ mVboId : uint32_t&lt;div&gt;+ mItemSize : size_t&lt;/div&gt;&lt;div&gt;+ mStride : size_t&lt;/div&gt;&lt;div&gt;+ mOffset ： size_t&lt;/div&gt;" style="text;strokeColor=none;fillColor=none;align=left;verticalAlign=top;spacingLeft=4;spacingRight=4;overflow=hidden;rotatable=0;points=[[0,0.5],[1,0.5]];portConstraint=eastwest;whiteSpace=wrap;html=1;" parent="7Mvn_Pxmh1yl7U_SXqtg-0" vertex="1">
          <mxGeometry y="26" width="160" height="74" as="geometry" />
        </mxCell>
        <mxCell id="7Mvn_Pxmh1yl7U_SXqtg-17" value="VsOutput" style="swimlane;fontStyle=1;align=center;verticalAlign=top;childLayout=stackLayout;horizontal=1;startSize=26;horizontalStack=0;resizeParent=1;resizeParentMax=0;resizeLast=0;collapsible=1;marginBottom=0;whiteSpace=wrap;html=1;" parent="WIyWlLk6GJQsqaUBKTNV-1" vertex="1">
          <mxGeometry x="1370" y="224" width="200" height="96" as="geometry" />
        </mxCell>
        <mxCell id="7Mvn_Pxmh1yl7U_SXqtg-21" value="+ mPosition : math::vec4f&lt;div&gt;+ mColor : math::vec4f (0.0f~1.0f)&lt;/div&gt;&lt;div&gt;+ mUV : math::vec2f&lt;br&gt;&lt;div&gt;&lt;br&gt;&lt;/div&gt;&lt;/div&gt;" style="text;html=1;align=center;verticalAlign=middle;resizable=0;points=[];autosize=1;strokeColor=none;fillColor=none;" parent="7Mvn_Pxmh1yl7U_SXqtg-17" vertex="1">
          <mxGeometry y="26" width="200" height="70" as="geometry" />
        </mxCell>
        <mxCell id="7Mvn_Pxmh1yl7U_SXqtg-22" value="FsOutput" style="swimlane;fontStyle=1;align=center;verticalAlign=top;childLayout=stackLayout;horizontal=1;startSize=26;horizontalStack=0;resizeParent=1;resizeParentMax=0;resizeLast=0;collapsible=1;marginBottom=0;whiteSpace=wrap;html=1;" parent="WIyWlLk6GJQsqaUBKTNV-1" vertex="1">
          <mxGeometry x="1130" y="292" width="155" height="86" as="geometry" />
        </mxCell>
        <mxCell id="7Mvn_Pxmh1yl7U_SXqtg-23" value="&lt;div&gt;&lt;div&gt;+ mPixelPos : math::vec2i&lt;/div&gt;&lt;/div&gt;&lt;div&gt;+ mDepth : float&lt;/div&gt;&lt;div&gt;+ mColor : RGBA (0~255)&lt;/div&gt;" style="text;html=1;align=center;verticalAlign=middle;resizable=0;points=[];autosize=1;strokeColor=none;fillColor=none;" parent="7Mvn_Pxmh1yl7U_SXqtg-22" vertex="1">
          <mxGeometry y="26" width="155" height="60" as="geometry" />
        </mxCell>
        <mxCell id="7Mvn_Pxmh1yl7U_SXqtg-25" value="BufferObject" style="swimlane;fontStyle=1;align=center;verticalAlign=top;childLayout=stackLayout;horizontal=1;startSize=26;horizontalStack=0;resizeParent=1;resizeParentMax=0;resizeLast=0;collapsible=1;marginBottom=0;whiteSpace=wrap;html=1;" parent="WIyWlLk6GJQsqaUBKTNV-1" vertex="1">
          <mxGeometry x="320" y="620" width="220" height="160" as="geometry" />
        </mxCell>
        <mxCell id="7Mvn_Pxmh1yl7U_SXqtg-26" value="- mBufferSize : size_t&lt;div&gt;- mBuffer : byte*&lt;/div&gt;" style="text;strokeColor=none;fillColor=none;align=left;verticalAlign=top;spacingLeft=4;spacingRight=4;overflow=hidden;rotatable=0;points=[[0,0.5],[1,0.5]];portConstraint=eastwest;whiteSpace=wrap;html=1;" parent="7Mvn_Pxmh1yl7U_SXqtg-25" vertex="1">
          <mxGeometry y="26" width="220" height="44" as="geometry" />
        </mxCell>
        <mxCell id="7Mvn_Pxmh1yl7U_SXqtg-27" value="" style="line;strokeWidth=1;fillColor=none;align=left;verticalAlign=middle;spacingTop=-1;spacingLeft=3;spacingRight=3;rotatable=0;labelPosition=right;points=[];portConstraint=eastwest;strokeColor=inherit;" parent="7Mvn_Pxmh1yl7U_SXqtg-25" vertex="1">
          <mxGeometry y="70" width="220" height="8" as="geometry" />
        </mxCell>
        <mxCell id="7Mvn_Pxmh1yl7U_SXqtg-28" value="+ BufferObject()&lt;div&gt;+ ~BufferObject()&lt;/div&gt;&lt;div&gt;+ BufferObject(const BufferObject&amp;amp;)&lt;/div&gt;&lt;div&gt;+ setBufferData(dataSize, data)&lt;/div&gt;&lt;div&gt;+ getBuffer() : byte*&lt;/div&gt;" style="text;strokeColor=none;fillColor=none;align=left;verticalAlign=top;spacingLeft=4;spacingRight=4;overflow=hidden;rotatable=0;points=[[0,0.5],[1,0.5]];portConstraint=eastwest;whiteSpace=wrap;html=1;" parent="7Mvn_Pxmh1yl7U_SXqtg-25" vertex="1">
          <mxGeometry y="78" width="220" height="82" as="geometry" />
        </mxCell>
        <mxCell id="7Mvn_Pxmh1yl7U_SXqtg-29" value="VertexArrayObject" style="swimlane;fontStyle=1;align=center;verticalAlign=top;childLayout=stackLayout;horizontal=1;startSize=26;horizontalStack=0;resizeParent=1;resizeParentMax=0;resizeLast=0;collapsible=1;marginBottom=0;whiteSpace=wrap;html=1;" parent="WIyWlLk6GJQsqaUBKTNV-1" vertex="1">
          <mxGeometry x="660" y="659" width="270" height="140" as="geometry" />
        </mxCell>
        <mxCell id="7Mvn_Pxmh1yl7U_SXqtg-30" value="+ mBindingMap : std::map" style="text;strokeColor=none;fillColor=none;align=left;verticalAlign=top;spacingLeft=4;spacingRight=4;overflow=hidden;rotatable=0;points=[[0,0.5],[1,0.5]];portConstraint=eastwest;whiteSpace=wrap;html=1;" parent="7Mvn_Pxmh1yl7U_SXqtg-29" vertex="1">
          <mxGeometry y="26" width="270" height="26" as="geometry" />
        </mxCell>
        <mxCell id="7Mvn_Pxmh1yl7U_SXqtg-31" value="" style="line;strokeWidth=1;fillColor=none;align=left;verticalAlign=middle;spacingTop=-1;spacingLeft=3;spacingRight=3;rotatable=0;labelPosition=right;points=[];portConstraint=eastwest;strokeColor=inherit;" parent="7Mvn_Pxmh1yl7U_SXqtg-29" vertex="1">
          <mxGeometry y="52" width="270" height="8" as="geometry" />
        </mxCell>
        <mxCell id="7Mvn_Pxmh1yl7U_SXqtg-35" value="" style="endArrow=classic;html=1;rounded=0;entryX=0.596;entryY=-0.02;entryDx=0;entryDy=0;entryPerimeter=0;" parent="7Mvn_Pxmh1yl7U_SXqtg-29" target="7Mvn_Pxmh1yl7U_SXqtg-0" edge="1">
          <mxGeometry width="50" height="50" relative="1" as="geometry">
            <mxPoint x="170" y="141" as="sourcePoint" />
            <mxPoint x="220" y="91" as="targetPoint" />
          </mxGeometry>
        </mxCell>
        <mxCell id="7Mvn_Pxmh1yl7U_SXqtg-32" value="+ VertextArrayObject()&lt;div&gt;+ ~VertexArrayObject()&lt;/div&gt;&lt;div&gt;+ set(binding, vboId, itemSize, stride, offset)&lt;/div&gt;&lt;div&gt;+ getBindingMap() : std::map&lt;/div&gt;" style="text;strokeColor=none;fillColor=none;align=left;verticalAlign=top;spacingLeft=4;spacingRight=4;overflow=hidden;rotatable=0;points=[[0,0.5],[1,0.5]];portConstraint=eastwest;whiteSpace=wrap;html=1;" parent="7Mvn_Pxmh1yl7U_SXqtg-29" vertex="1">
          <mxGeometry y="60" width="270" height="80" as="geometry" />
        </mxCell>
        <mxCell id="7Mvn_Pxmh1yl7U_SXqtg-33" value="" style="endArrow=classic;html=1;rounded=0;exitX=1;exitY=0.983;exitDx=0;exitDy=0;exitPerimeter=0;entryX=0.5;entryY=0;entryDx=0;entryDy=0;" parent="WIyWlLk6GJQsqaUBKTNV-1" source="5mf7mb4UoupejFtRi5i7-7" target="7Mvn_Pxmh1yl7U_SXqtg-29" edge="1">
          <mxGeometry width="50" height="50" relative="1" as="geometry">
            <mxPoint x="720" y="570" as="sourcePoint" />
            <mxPoint x="770" y="520" as="targetPoint" />
          </mxGeometry>
        </mxCell>
        <mxCell id="7Mvn_Pxmh1yl7U_SXqtg-34" value="" style="endArrow=classic;html=1;rounded=0;entryX=0.37;entryY=0.008;entryDx=0;entryDy=0;entryPerimeter=0;exitX=0.832;exitY=0.994;exitDx=0;exitDy=0;exitPerimeter=0;" parent="WIyWlLk6GJQsqaUBKTNV-1" source="5mf7mb4UoupejFtRi5i7-7" target="7Mvn_Pxmh1yl7U_SXqtg-25" edge="1">
          <mxGeometry width="50" height="50" relative="1" as="geometry">
            <mxPoint x="260" y="540" as="sourcePoint" />
            <mxPoint x="310" y="490" as="targetPoint" />
          </mxGeometry>
        </mxCell>
        <mxCell id="7Mvn_Pxmh1yl7U_SXqtg-36" value="" style="endArrow=classic;html=1;rounded=0;exitX=1;exitY=0.5;exitDx=0;exitDy=0;" parent="WIyWlLk6GJQsqaUBKTNV-1" edge="1" source="5mf7mb4UoupejFtRi5i7-7">
          <mxGeometry width="50" height="50" relative="1" as="geometry">
            <mxPoint x="290" y="390" as="sourcePoint" />
            <mxPoint x="600" y="420" as="targetPoint" />
          </mxGeometry>
        </mxCell>
        <mxCell id="MvT1UFq6Ff6sZqpsX1NM-0" value="Shader" style="swimlane;fontStyle=1;align=center;verticalAlign=top;childLayout=stackLayout;horizontal=1;startSize=26;horizontalStack=0;resizeParent=1;resizeParentMax=0;resizeLast=0;collapsible=1;marginBottom=0;whiteSpace=wrap;html=1;" parent="WIyWlLk6GJQsqaUBKTNV-1" vertex="1">
          <mxGeometry x="950" y="510" width="430" height="134" as="geometry" />
        </mxCell>
        <mxCell id="MvT1UFq6Ff6sZqpsX1NM-2" value="" style="line;strokeWidth=1;fillColor=none;align=left;verticalAlign=middle;spacingTop=-1;spacingLeft=3;spacingRight=3;rotatable=0;labelPosition=right;points=[];portConstraint=eastwest;strokeColor=inherit;" parent="MvT1UFq6Ff6sZqpsX1NM-0" vertex="1">
          <mxGeometry y="26" width="430" height="8" as="geometry" />
        </mxCell>
        <mxCell id="MvT1UFq6Ff6sZqpsX1NM-3" value="+ Shader()&lt;div&gt;+ ~Shader()&lt;/div&gt;&lt;div&gt;+ vertexShader(bindingMap, bufferMap, index) : VsOutput&lt;/div&gt;&lt;div&gt;+ fragmentShader(input, output)&lt;/div&gt;&lt;div&gt;+ getVector(bindingMap, bufferMap, attributeLocation, index) : math::vec4f&lt;/div&gt;&lt;div&gt;+ vectorToRGBA(v) : RGBA&lt;/div&gt;&lt;div&gt;&lt;br&gt;&lt;/div&gt;" style="text;strokeColor=none;fillColor=none;align=left;verticalAlign=top;spacingLeft=4;spacingRight=4;overflow=hidden;rotatable=0;points=[[0,0.5],[1,0.5]];portConstraint=eastwest;whiteSpace=wrap;html=1;" parent="MvT1UFq6Ff6sZqpsX1NM-0" vertex="1">
          <mxGeometry y="34" width="430" height="100" as="geometry" />
        </mxCell>
        <mxCell id="MvT1UFq6Ff6sZqpsX1NM-5" value="" style="endArrow=classic;html=1;rounded=0;exitX=1.007;exitY=0.894;exitDx=0;exitDy=0;exitPerimeter=0;entryX=-0.009;entryY=0.936;entryDx=0;entryDy=0;entryPerimeter=0;" parent="WIyWlLk6GJQsqaUBKTNV-1" edge="1" source="5mf7mb4UoupejFtRi5i7-7">
          <mxGeometry width="50" height="50" relative="1" as="geometry">
            <mxPoint x="290" y="472" as="sourcePoint" />
            <mxPoint x="946.1300000000001" y="560.3359999999998" as="targetPoint" />
          </mxGeometry>
        </mxCell>
        <mxCell id="MvT1UFq6Ff6sZqpsX1NM-6" value="DefaultShader" style="swimlane;fontStyle=0;childLayout=stackLayout;horizontal=1;startSize=26;fillColor=none;horizontalStack=0;resizeParent=1;resizeParentMax=0;resizeLast=0;collapsible=1;marginBottom=0;whiteSpace=wrap;html=1;" parent="WIyWlLk6GJQsqaUBKTNV-1" vertex="1">
          <mxGeometry x="1080" y="730" width="190" height="104" as="geometry" />
        </mxCell>
        <mxCell id="MvT1UFq6Ff6sZqpsX1NM-10" value="" style="endArrow=open;endFill=1;endSize=12;html=1;rounded=0;entryX=0.512;entryY=1.01;entryDx=0;entryDy=0;entryPerimeter=0;" parent="MvT1UFq6Ff6sZqpsX1NM-6" target="MvT1UFq6Ff6sZqpsX1NM-3" edge="1">
          <mxGeometry width="160" relative="1" as="geometry">
            <mxPoint x="90" as="sourcePoint" />
            <mxPoint x="250" as="targetPoint" />
          </mxGeometry>
        </mxCell>
        <mxCell id="MvT1UFq6Ff6sZqpsX1NM-7" value="+ mModelMatrix : math::mat4f" style="text;strokeColor=none;fillColor=none;align=left;verticalAlign=top;spacingLeft=4;spacingRight=4;overflow=hidden;rotatable=0;points=[[0,0.5],[1,0.5]];portConstraint=eastwest;whiteSpace=wrap;html=1;" parent="MvT1UFq6Ff6sZqpsX1NM-6" vertex="1">
          <mxGeometry y="26" width="190" height="26" as="geometry" />
        </mxCell>
        <mxCell id="MvT1UFq6Ff6sZqpsX1NM-8" value="+ mViewMatrix : math::mat4f" style="text;strokeColor=none;fillColor=none;align=left;verticalAlign=top;spacingLeft=4;spacingRight=4;overflow=hidden;rotatable=0;points=[[0,0.5],[1,0.5]];portConstraint=eastwest;whiteSpace=wrap;html=1;" parent="MvT1UFq6Ff6sZqpsX1NM-6" vertex="1">
          <mxGeometry y="52" width="190" height="26" as="geometry" />
        </mxCell>
        <mxCell id="MvT1UFq6Ff6sZqpsX1NM-9" value="+ mProjectionMatrix : math::mat4f" style="text;strokeColor=none;fillColor=none;align=left;verticalAlign=top;spacingLeft=4;spacingRight=4;overflow=hidden;rotatable=0;points=[[0,0.5],[1,0.5]];portConstraint=eastwest;whiteSpace=wrap;html=1;" parent="MvT1UFq6Ff6sZqpsX1NM-6" vertex="1">
          <mxGeometry y="78" width="190" height="26" as="geometry" />
        </mxCell>
        <mxCell id="MvT1UFq6Ff6sZqpsX1NM-12" value="" style="endArrow=classic;html=1;rounded=0;entryX=-0.003;entryY=0.481;entryDx=0;entryDy=0;entryPerimeter=0;" parent="WIyWlLk6GJQsqaUBKTNV-1" target="7Mvn_Pxmh1yl7U_SXqtg-21" edge="1">
          <mxGeometry width="50" height="50" relative="1" as="geometry">
            <mxPoint x="910" y="220" as="sourcePoint" />
            <mxPoint x="1220" y="250" as="targetPoint" />
          </mxGeometry>
        </mxCell>
        <mxCell id="MvT1UFq6Ff6sZqpsX1NM-13" value="" style="endArrow=classic;html=1;rounded=0;entryX=0;entryY=0.461;entryDx=0;entryDy=0;entryPerimeter=0;" parent="WIyWlLk6GJQsqaUBKTNV-1" target="7Mvn_Pxmh1yl7U_SXqtg-23" edge="1">
          <mxGeometry width="50" height="50" relative="1" as="geometry">
            <mxPoint x="911" y="240" as="sourcePoint" />
            <mxPoint x="1170" y="240" as="targetPoint" />
          </mxGeometry>
        </mxCell>
        <mxCell id="MvT1UFq6Ff6sZqpsX1NM-14" value="" style="endArrow=classic;html=1;rounded=0;entryX=0.495;entryY=1.028;entryDx=0;entryDy=0;entryPerimeter=0;exitX=0.482;exitY=0.022;exitDx=0;exitDy=0;exitPerimeter=0;" parent="WIyWlLk6GJQsqaUBKTNV-1" edge="1">
          <mxGeometry width="50" height="50" relative="1" as="geometry">
            <mxPoint x="1160.0000000000002" y="509.9979999999999" as="sourcePoint" />
            <mxPoint x="1209.465" y="376.72999999999985" as="targetPoint" />
            <Array as="points">
              <mxPoint x="1182.74" y="447.05" />
            </Array>
          </mxGeometry>
        </mxCell>
        <mxCell id="MvT1UFq6Ff6sZqpsX1NM-15" value="" style="endArrow=classic;html=1;rounded=0;entryX=0.13;entryY=0.986;entryDx=0;entryDy=0;entryPerimeter=0;exitX=0.482;exitY=0.022;exitDx=0;exitDy=0;exitPerimeter=0;" parent="WIyWlLk6GJQsqaUBKTNV-1" target="7Mvn_Pxmh1yl7U_SXqtg-21" edge="1">
          <mxGeometry width="50" height="50" relative="1" as="geometry">
            <mxPoint x="1330.5300000000002" y="509.9979999999998" as="sourcePoint" />
            <mxPoint x="1379.995" y="376.72999999999985" as="targetPoint" />
            <Array as="points">
              <mxPoint x="1353.27" y="447.05" />
            </Array>
          </mxGeometry>
        </mxCell>
      </root>
    </mxGraphModel>
  </diagram>
</mxfile>
